<svg width="76" height="76" viewBox="0 0 76 76" fill="none" xmlns="http://www.w3.org/2000/svg">
<path d="M38.0003 0.416992C30.5671 0.416992 23.3007 2.62122 17.1202 6.75093C10.9396 10.8806 6.12246 16.7504 3.27787 23.6178C0.433277 30.4853 -0.310999 38.042 1.13916 45.3325C2.58932 52.6229 6.16879 59.3196 11.4249 64.5758C16.681 69.8319 23.3777 73.4113 30.6682 74.8615C37.9587 76.3117 45.5154 75.5674 52.3829 72.7228C59.2503 69.8782 65.12 65.0611 69.2497 58.8805C73.3795 52.7 75.5837 45.4336 75.5837 38.0003C75.5719 28.0362 71.6085 18.4836 64.5628 11.4379C57.5171 4.39218 47.9645 0.428747 38.0003 0.416992ZM55.0837 41.417H41.417V55.0837C41.417 55.9898 41.057 56.8589 40.4163 57.4996C39.7755 58.1404 38.9065 58.5003 38.0003 58.5003C37.0942 58.5003 36.2251 58.1404 35.5844 57.4996C34.9436 56.8589 34.5837 55.9898 34.5837 55.0837V41.417H20.917C20.0109 41.417 19.1418 41.057 18.5011 40.4163C17.8603 39.7755 17.5003 38.9065 17.5003 38.0003C17.5003 37.0942 17.8603 36.2251 18.5011 35.5844C19.1418 34.9436 20.0109 34.5837 20.917 34.5837H34.5837V20.917C34.5837 20.0108 34.9436 19.1418 35.5844 18.501C36.2251 17.8603 37.0942 17.5003 38.0003 17.5003C38.9065 17.5003 39.7755 17.8603 40.4163 18.501C41.057 19.1418 41.417 20.0108 41.417 20.917V34.5837H55.0837C55.9898 34.5837 56.8589 34.9436 57.4996 35.5844C58.1404 36.2251 58.5003 37.0942 58.5003 38.0003C58.5003 38.9065 58.1404 39.7755 57.4996 40.4163C56.8589 41.057 55.9898 41.417 55.0837 41.417Z" fill="black"/>
</svg>
