<svg width="18" height="21" viewBox="0 0 18 21" fill="none" xmlns="http://www.w3.org/2000/svg">
<path d="M9 0C11.3869 0 13.6761 0.948212 15.364 2.63604C17.0518 4.32387 18 6.61305 18 9C18 12.726 15.16 16.63 9.6 20.8C9.4269 20.9298 9.21637 21 9 21C8.78363 21 8.5731 20.9298 8.4 20.8C2.84 16.63 0 12.726 0 9C0 6.61305 0.948211 4.32387 2.63604 2.63604C4.32387 0.948212 6.61305 0 9 0ZM9 6C8.20435 6 7.44129 6.31607 6.87868 6.87868C6.31607 7.44129 6 8.20435 6 9C6 9.79565 6.31607 10.5587 6.87868 11.1213C7.44129 11.6839 8.20435 12 9 12C9.79565 12 10.5587 11.6839 11.1213 11.1213C11.6839 10.5587 12 9.79565 12 9C12 8.20435 11.6839 7.44129 11.1213 6.87868C10.5587 6.31607 9.79565 6 9 6Z" fill="#333333"/>
</svg>
