<svg width="21" height="16" viewBox="0 0 21 16" fill="none" xmlns="http://www.w3.org/2000/svg">
<path d="M20.8002 13.4008V2.60078C20.8002 1.60478 19.9962 0.800781 19.0002 0.800781H2.18818C1.19218 0.800781 0.388184 1.60478 0.388184 2.60078V13.4008C0.388184 14.3968 1.19218 15.2008 2.18818 15.2008H19.0002C19.9962 15.2008 20.8002 14.3968 20.8002 13.4008ZM19.2282 2.46878C19.6242 2.86478 19.4082 3.27278 19.1922 3.47678L14.3202 7.94078L19.0002 12.8128C19.1442 12.9808 19.2402 13.2448 19.0722 13.4248C18.9162 13.6168 18.5562 13.6048 18.4002 13.4848L13.1562 9.00878L10.5882 11.3488L8.03218 9.00878L2.78818 13.4848C2.63218 13.6048 2.27218 13.6168 2.11618 13.4248C1.94818 13.2448 2.04418 12.9808 2.18818 12.8128L6.86818 7.94078L1.99618 3.47678C1.78018 3.27278 1.56418 2.86478 1.96018 2.46878C2.35618 2.07278 2.76418 2.26478 3.10018 2.55278L10.5882 8.60078L18.0882 2.55278C18.4242 2.26478 18.8322 2.07278 19.2282 2.46878Z" fill="#333333"/>
</svg>
