<svg width="39" height="33" viewBox="0 0 39 33" fill="none" xmlns="http://www.w3.org/2000/svg">
<path d="M25.0064 31.3524C25.0107 31.3481 25.015 31.3437 25.0193 31.3394L38.3549 17.9509C38.4602 17.8445 38.5537 17.727 38.6338 17.6004L38.843 17.2149L38.9302 16.952V16.7592C38.9842 16.4638 38.9842 16.161 38.9302 15.8655V15.6903V15.48L38.7733 15.182C38.6836 15.016 38.5722 14.8627 38.4421 14.7264L25.0193 1.28532C24.1311 0.385257 22.6851 0.379425 21.7898 1.27234C21.7855 1.27661 21.7812 1.28097 21.7769 1.28532C20.9158 2.19261 20.9158 3.61996 21.7769 4.52734L29.726 12.5359C30.063 12.8814 30.0576 13.4362 29.7138 13.775C29.5539 13.9326 29.3398 14.0223 29.1158 14.0254L3.15927 14.0254C1.89802 14.0254 0.875545 15.0531 0.875465 16.321C0.875385 17.5889 1.8977 18.6167 3.15895 18.6169H3.15927L29.1158 18.6169C29.5971 18.6237 29.9819 19.0214 29.9751 19.5052C29.9719 19.7303 29.8828 19.9456 29.726 20.1064L21.7769 28.08C20.9047 28.9895 20.9047 30.4299 21.7769 31.3395C22.6651 32.2395 24.111 32.2454 25.0064 31.3524Z" fill="#101010"/>
</svg>
