<svg width="14" height="14" viewBox="0 0 14 14" fill="none" xmlns="http://www.w3.org/2000/svg">
<path d="M13.4866 10.1406C13.4866 10.1378 13.4866 10.135 13.4866 10.1322L13.4695 1.47113C13.4691 1.40255 13.4613 1.33415 13.4462 1.26715L13.3891 1.07441L13.3322 0.960966L13.2697 0.898483C13.1915 0.785243 13.0933 0.687086 12.98 0.608831L12.9232 0.552045L12.8551 0.483891L12.7077 0.438178C12.6248 0.413452 12.539 0.399871 12.4527 0.397838L3.74634 0.391932C3.16678 0.388096 2.69628 0.854816 2.69549 1.43437C2.69547 1.43716 2.69551 1.43995 2.69551 1.44276C2.71049 2.01588 3.17308 2.47847 3.74622 2.49347L8.91795 2.51274C9.13914 2.5155 9.3172 2.69706 9.31557 2.91826C9.31484 3.02118 9.27452 3.11963 9.20295 3.19323L0.790673 11.6055C0.381888 12.0142 0.383584 12.6787 0.794476 13.0896C1.20537 13.5006 1.86979 13.5024 2.2786 13.0936L2.27871 13.0935L10.691 4.68127C10.8492 4.52749 11.1028 4.53169 11.2574 4.6907C11.3293 4.76468 11.3702 4.86335 11.3715 4.96627L11.3794 10.1267C11.3915 10.7041 11.8583 11.1709 12.4358 11.183C13.0153 11.1869 13.4858 10.7201 13.4866 10.1406Z" fill="white"/>
</svg>
