<svg width="76" height="76" viewBox="0 0 76 76" fill="none" xmlns="http://www.w3.org/2000/svg">
<rect width="76" height="76" rx="38" fill="#FF7F50"/>
<path d="M33.8177 42.165C32.4585 43.2325 31.5835 44.8892 31.5835 46.75V48.5H28.0835C27.1152 48.5 26.3335 47.7183 26.3335 46.75V45.5833C26.3335 43.3258 28.1593 41.5 30.4168 41.5H31.5835C32.4118 41.5 33.176 41.745 33.8177 42.165Z" fill="#F5F5DC"/>
<path d="M45 41.5C46.4497 41.5 47.625 40.3247 47.625 38.875C47.625 37.4253 46.4497 36.25 45 36.25C43.5503 36.25 42.375 37.4253 42.375 38.875C42.375 40.3247 43.5503 41.5 45 41.5Z" fill="#F5F5DC"/>
<path d="M31 41.5C32.4497 41.5 33.625 40.3247 33.625 38.875C33.625 37.4253 32.4497 36.25 31 36.25C29.5503 36.25 28.375 37.4253 28.375 38.875C28.375 40.3247 29.5503 41.5 31 41.5Z" fill="#F5F5DC"/>
<path d="M49.6668 45.5833V46.75C49.6668 47.7183 48.8851 48.5 47.9168 48.5H44.4168V46.75C44.4168 44.8892 43.5418 43.2325 42.1826 42.165C42.8243 41.745 43.5885 41.5 44.4168 41.5H45.5835C47.841 41.5 49.6668 43.3258 49.6668 45.5833Z" fill="#F5F5DC"/>
<path d="M37.9998 42.0837C39.7718 42.0837 41.2082 40.6472 41.2082 38.8753C41.2082 37.1034 39.7718 35.667 37.9998 35.667C36.2279 35.667 34.7915 37.1034 34.7915 38.8753C34.7915 40.6472 36.2279 42.0837 37.9998 42.0837Z" fill="#F5F5DC"/>
<path d="M38.5833 42.083H37.4167C34.8436 42.083 32.75 44.1766 32.75 46.7497V48.4997C32.75 49.4645 33.5352 50.2497 34.5 50.2497H41.5C42.4648 50.2497 43.25 49.4645 43.25 48.4997V46.7497C43.25 44.1766 41.1564 42.083 38.5833 42.083Z" fill="#F5F5DC"/>
<path d="M46.4584 33.7323L45.0508 34.2328C44.6513 34.3745 44.2342 34.0718 44.2458 33.6477L44.2867 32.1543L43.3755 30.9702C43.1171 30.6342 43.2763 30.1436 43.6829 30.0234L45.1162 29.6011L45.9608 28.3685C46.2006 28.0191 46.7163 28.0191 46.956 28.3685L47.8007 29.6011L49.2339 30.0234C49.6405 30.143 49.7998 30.6342 49.5413 30.9702L48.6302 32.1543L48.671 33.6477C48.6827 34.0712 48.265 34.3745 47.866 34.2328L46.4584 33.7323Z" fill="#F5F5DC"/>
<path d="M29.5414 33.7323L28.1338 34.2328C27.7343 34.3745 27.3172 34.0718 27.3288 33.6477L27.3697 32.1543L26.4585 30.9702C26.2001 30.6342 26.3593 30.1436 26.7659 30.0234L28.1992 29.6011L29.0438 28.3685C29.2836 28.0191 29.7993 28.0191 30.039 28.3685L30.8837 29.6011L32.3169 30.0234C32.7235 30.143 32.8828 30.6342 32.6243 30.9702L31.7132 32.1543L31.754 33.6477C31.7657 34.0712 31.348 34.3745 30.949 34.2328L29.5414 33.7323Z" fill="#F5F5DC"/>
<path d="M38.0001 32.4196L36.3312 33.0128C35.8575 33.1814 35.3629 32.8215 35.3769 32.3193L35.4253 30.5488L34.345 29.1448C34.0387 28.7463 34.2277 28.1648 34.7095 28.0224L36.4088 27.5213L37.4104 26.0601C37.6945 25.6453 38.3064 25.6453 38.5905 26.0601L39.592 27.5213L41.2913 28.0224C41.7731 28.1648 41.9621 28.7463 41.6559 29.1448L40.5755 30.5488L40.624 32.3193C40.638 32.8215 40.1427 33.1814 39.6696 33.0128L38.0001 32.4196Z" fill="#F5F5DC"/>
</svg>
