<svg width="76" height="76" viewBox="0 0 76 76" fill="none" xmlns="http://www.w3.org/2000/svg">
<rect width="76" height="76" rx="38" fill="#FF7F50"/>
<g clip-path="url(#clip0_466_461)">
<path d="M41.8651 36.1043C43.0628 37.1202 43.215 37.2614 43.7421 37.7153C44.1283 37.3841 44.4596 37.0827 45.8641 35.9049C48.442 33.7403 50.3046 32.1774 50.3046 29.8687C50.3046 27.6801 48.6968 25.9658 46.6444 25.9658C45.2657 25.9658 44.3509 26.7437 43.7765 27.536C43.2326 26.7413 42.3482 25.9658 40.9655 25.9658C38.9131 25.9658 37.3062 27.6802 37.3062 29.8687C37.3061 32.2359 39.1198 33.7748 41.8651 36.1043Z" fill="#F5F5DC"/>
<path d="M28.6922 49.591C30.8415 48.1309 33.1931 47.573 35.7525 47.9996L39.854 48.705C41.4291 48.9676 42.8727 48.8855 44.1196 48.4754C46.6991 47.6157 49.2814 44.9081 49.9657 43.8816C50.9174 42.4543 51.4401 40.8957 51.7683 40.141C52.08 39.4192 52.08 38.9106 51.7519 38.6153C51.3745 38.2707 50.7347 38.4511 50.2589 38.7137C49.5042 39.1402 48.7025 40.3707 47.8821 41.5519C46.8158 43.0941 44.9892 44.0129 43.1189 44.0129H37.1797V42.3722H39.6407C44.0047 42.3722 45.957 41.5519 45.957 40.7316C45.957 40.0426 44.5954 39.7308 44.1359 39.6324C42.3477 39.2223 38.3117 39.0254 35.5555 37.7949C35.0585 37.5774 34.495 37.4554 33.8986 37.4504C32.9636 37.4424 31.9474 37.7337 30.9781 38.4839C30.9618 38.4839 30.9618 38.4839 30.9454 38.5004C30.3055 38.9925 29.4305 39.7144 28.2493 40.748C27.2484 41.6339 26.2805 42.7659 24.5906 44.2097L24 44.7183L28.036 50.034L28.6922 49.591Z" fill="#F5F5DC"/>
</g>
<defs>
<clipPath id="clip0_466_461">
<rect width="28" height="28" fill="white" transform="translate(24 24)"/>
</clipPath>
</defs>
</svg>
